<svg xmlns="http://www.w3.org/2000/svg" viewBox="0 0 24 24" class="lucide-icon" width="16" height="16">
  <style>
    .lucide-icon {
      fill: none;
      stroke: #d2c6a2;
      stroke-width: 2;
      stroke-linecap: round;
      stroke-linejoin: round;
    }
    @media (prefers-color-scheme: light) {
      .lucide-icon {
        stroke: #504945;
      }
    }
  </style>
  <path d="M2.5 17a24.12 24.12 0 0 1 0-10 2 2 0 0 1 1.4-1.4 49.56 49.56 0 0 1 16.2 0A2 2 0 0 1 21.5 7a24.12 24.12 0 0 1 0 10 2 2 0 0 1-1.4 1.4 49.55 49.55 0 0 1-16.2 0A2 2 0 0 1 2.5 17z"/>
  <path d="m10 15 5-3-5-3z"/>
</svg>
